PathFileType	4	(X/Y/Z)	/Users/niels/Desktop/University/Third Semester/Perception and Action/Exam/Gymnastics Motion Tracking/Code for Gym Tracking/Analyzed Data/Webcam_Backflip/id1_5_baseline_Sports2D/id1_5_baseline_Sports2D_px_person00.trc
DataRate	CameraRate	NumFrames	NumMarkers	Units	OrigDataRate	OrigDataStartFrame	OrigNumFrames
29.87551867219917	29.87551867219917	9	22	m	29.87551867219917	120	241
Frame#	Time	Hip			RHip			RKnee			RAnkle			RBigToe			RSmallToe			RHeel			LHip			LKnee			LAnkle			LBigToe			LSmallToe			LHeel			Neck			Head			Nose			RShoulder			RElbow			RWrist			LShoulder			LElbow			LWrist		
		X1	Y1	Z1	X2	Y2	Z2	X3	Y3	Z3	X4	Y4	Z4	X5	Y5	Z5	X6	Y6	Z6	X7	Y7	Z7	X8	Y8	Z8	X9	Y9	Z9	X10	Y10	Z10	X11	Y11	Z11	X12	Y12	Z12	X13	Y13	Z13	X14	Y14	Z14	X15	Y15	Z15	X16	Y16	Z16	X17	Y17	Z17	X18	Y18	Z18	X19	Y19	Z19	X20	Y20	Z20	X21	Y21	Z21	X22	Y22	Z22
120	4.016666666666667	0.815133778277887	-0.5431101344118904	0.0	0.7978620231577483	-0.5442796916261518	0.0	0.805963621216564	-0.6598554163197443	0.0	0.755670910833744	-0.7591388155956985	0.0	0.772269526958236	-0.8014517355766602	0.0	0.7560081563996609	-0.8000692318889409	0.0	0.7415176932148608	-0.7690790736882583	0.0	0.8356552951027005	-0.5390228037159761	0.0	0.907489073992047	-0.6126148475833346	0.0	0.9619796579286148	-0.707882716493084	0.0	1.0061638428213047	-0.6966845569343721	0.0	1.003834332653378	-0.6946678732002954	0.0	0.9625624272044803	-0.7273778868307617	0.0	0.8397375512849752	-0.3993592140736334	0.0	0.9123026890652988	-0.3568789550527557	0.0	0.8921803081336902	-0.3995173339462188	0.0	0.8184592577991662	-0.39482712966942196	0.0	0.8420566453225865	-0.3513505022197591	0.0	0.8926912708223956	-0.3093832372928686	0.0	0.8417500639170556	-0.40413169709339775	0.0	0.8579916999127247	-0.36604535644655384	0.0	0.8994722330131765	-0.32543071787699335	0.0
121	4.050138888888889	0.8157391677163386	-0.5453636632477606	0.0	0.7980112411851495	-0.5462609278437736	0.0	0.7948700262337406	-0.6629514789569156	0.0	0.751731452047655	-0.767252966483742	0.0	0.7679404058638833	-0.8071621269729439	0.0	0.7503922709428701	-0.8060833353570125	0.0	0.7387059059154537	-0.7794862449879743	0.0	0.8362527751086292	-0.5416450171485111	0.0	0.9046941557262368	-0.6177385834837734	0.0	0.9572328047223233	-0.7135697747984355	0.0	1.000511044678491	-0.704600275586132	0.0	0.9983795079588762	-0.7027315755100728	0.0	0.9564916143562652	-0.7336667687601892	0.0	0.8364936199537564	-0.3984062672643308	0.0	0.9079966770241001	-0.3521298425398184	0.0	0.8887669314356486	-0.3959821456295009	0.0	0.8130877438806724	-0.3945439896538116	0.0	0.8277249081156982	-0.34605995339757023	0.0	0.8765438222510453	-0.29949972269860375	0.0	0.8378994630437936	-0.40454471439158035	0.0	0.843024647562313	-0.36036878069436207	0.0	0.8839871999637167	-0.31225877798801965	0.0
122	4.083611111111111	0.8152161008719456	-0.5508600392023529	0.0	0.7973352260689527	-0.5514184121247908	0.0	0.7864031687575408	-0.6675453898394408	0.0	0.749356718383029	-0.7760715202619102	0.0	0.7655914415989898	-0.8126382053841752	0.0	0.7472949994671927	-0.8120603917495377	0.0	0.737466038286024	-0.7902622592076768	0.0	0.8356014695803935	-0.5473876469965038	0.0	0.9010992359224244	-0.6251846474592091	0.0	0.9502456239173647	-0.7218965620157171	0.0	0.9929757463919572	-0.7155033286135923	0.0	0.9906173345515052	-0.7139352295100228	0.0	0.948285914311428	-0.7425873254641464	0.0	0.8336949003699992	-0.401430357917674	0.0	0.9037768126303986	-0.35161614168277233	0.0	0.8854000587928094	-0.3964911169552418	0.0	0.8084875482792371	-0.3981523488657539	0.0	0.8146367442021681	-0.34687249544641	0.0	0.8626947859668079	-0.296681243892947	0.0	0.8341295598925789	-0.4091955759671476	0.0	0.8292105713503675	-0.3618441139209562	0.0	0.8696363867573949	-0.30786144215670075	0.0
123	4.117083333333333	0.8137166461009093	-0.5592592669362437	0.0	0.7959499713750506	-0.5594686615448373	0.0	0.7803645615566331	-0.6741764833325957	0.0	0.7477079735130334	-0.7856263978577378	0.0	0.7642868537241888	-0.8181953977883119	0.0	0.7458488779984114	-0.8183347802924819	0.0	0.7368851632575614	-0.8010671667547064	0.0	0.8338580924404418	-0.5559477623458856	0.0	0.8967213272966134	-0.6348463894322143	0.0	0.9418646096457013	-0.7323806608026623	0.0	0.9846451922901409	-0.7281868097581398	0.0	0.9815991899687211	-0.7269345958224841	0.0	0.9390432750265221	-0.7534544602032932	0.0	0.8310251671394696	-0.4081881751681928	0.0	0.8995684065409034	-0.3554822878668286	0.0	0.8818869908557734	-0.4011517412864692	0.0	0.8045304291358067	-0.4054391091725296	0.0	0.8036924023014779	-0.3531555770164835	0.0	0.8514634563142036	-0.3001705670502413	0.0	0.8304621667164456	-0.4173618233456289	0.0	0.817829997412998	-0.368900025890641	0.0	0.8573370475941018	-0.3110722192575348	0.0
124	4.150555555555556	0.8115262250993491	-0.5700381207562478	0.0	0.7940433917372063	-0.5699487256384032	0.0	0.7762496938579942	-0.682997517182925	0.0	0.7463014119191392	-0.7960433710806942	0.0	0.7634148772165712	-0.8242710385263567	0.0	0.7453885654229758	-0.8253013666425367	0.0	0.7364306359599931	-0.8119775136395838	0.0	0.8313316804077283	-0.5668815504291546	0.0	0.8916779121179007	-0.6465259237842182	0.0	0.9329632005201848	-0.7445751168540811	0.0	0.976498045835786	-0.7416998397990269	0.0	0.9724556463037741	-0.7406710605133169	0.0	0.929664936169434	-0.765696669948335	0.0	0.8283416490008543	-0.4181290976772148	0.0	0.8954095201943296	-0.3633696245470886	0.0	0.878233503997734	-0.4095835772498757	0.0	0.8011491396950908	-0.41593151269581136	0.0	0.7952589334481954	-0.36429223094035373	0.0	0.8427507019746647	-0.309286285439149	0.0	0.8270971731684172	-0.42825382694023467	0.0	0.8094583395300111	-0.38003910493183585	0.0	0.8475994806580308	-0.32067604140036093	0.0
125	4.184027777777778	0.808941241858602	-0.5824868029927002	0.0	0.7918325268064565	-0.582188091446309	0.0	0.7734380063994936	-0.6936464826908499	0.0	0.7449645797780151	-0.8071691906383259	0.0	0.7626270633707719	-0.831040468543238	0.0	0.7454225954098362	-0.8330009456018136	0.0	0.7359056506299286	-0.8230291668020091	0.0	0.8283645976183238	-0.5795265730147998	0.0	0.8861982259023364	-0.6598589564403878	0.0	0.9244249146594941	-0.7580076331365594	0.0	0.969228578042208	-0.7555807138308959	0.0	0.9641317524474603	-0.7546547955996687	0.0	0.9209246363430582	-0.7788715352919453	0.0	0.825713061435256	-0.4303405472616419	0.0	0.8914695933765043	-0.3743570864732393	0.0	0.8746527817933858	-0.42087609629466105	0.0	0.7983874775996604	-0.42881750519626943	0.0	0.7893082355175308	-0.3794668421514539	0.0	0.8363689034195804	-0.323242208131097	0.0	0.8242889931228601	-0.44097581588803053	0.0	0.804004268577584	-0.39403377284387964	0.0	0.8406598005764992	-0.33525658778837414	0.0
126	4.2175	0.8062120564593221	-0.5956658444493419	0.0	0.7895091591440666	-0.5952944506379229	0.0	0.7713905246513288	-0.7053480109680695	0.0	0.7437126935314774	-0.8184341512216162	0.0	0.7618778439263023	-0.8381429800350704	0.0	0.7457048438304197	-0.8408955669778521	0.0	0.7353401394340204	-0.8338693286975768	0.0	0.8252731809045207	-0.5929857073514639	0.0	0.8806200662148955	-0.6741789371931634	0.0	0.9170566917669092	-0.7719650571402243	0.0	0.9632810181189193	-0.7695077216485661	0.0	0.9572789106793437	-0.7685228770166138	0.0	0.9135602766634714	-0.7923970082961345	0.0	0.8233573637847568	-0.44366739335719935	0.0	0.8879911450090201	-0.3871450208568596	0.0	0.8714806380142912	-0.43380463679599857	0.0	0.7963342896615194	-0.4429858684717611	0.0	0.7855377988025908	-0.3974435435289311	0.0	0.8322245375574122	-0.3408268304835625	0.0	0.8222232773464042	-0.45450070753963784	0.0	0.8010533447103869	-0.40939430635275426	0.0	0.8365726696501317	-0.35288612867558167	0.0
127	4.250972222222222	0.8035945410089711	-0.6084558735150342	0.0	0.7872512121592903	-0.6082164966460482	0.0	0.7697912430130243	-0.7171161958962649	0.0	0.7426468099026026	-0.8289883324001707	0.0	0.7613967167543865	-0.8447521909957397	0.0	0.7462543441823964	-0.8480328959662784	0.0	0.7348650289369267	-0.843763845201696	0.0	0.822394988216027	-0.6061966007886023	0.0	0.8753909263380341	-0.6884400682601783	0.0	0.9114746639733294	-0.785395546311274	0.0	0.9590056612964826	-0.7827936200410333	0.0	0.9523605376447909	-0.7814872193614089	0.0	0.9082100965044455	-0.8053257185281709	0.0	0.8215487036246799	-0.45687142248924495	0.0	0.8851911944633655	-0.4002993316515552	0.0	0.8690261388606617	-0.44703247081293895	0.0	0.7950530805297091	-0.4571355827749638	0.0	0.7834712081980572	-0.4166139455181821	0.0	0.8303191246384278	-0.36027357443984753	0.0	0.8210223817761682	-0.46774714617222224	0.0	0.8001933196666497	-0.4244138140616888	0.0	0.8352146245945868	-0.3715156908202776	0.0
128	4.2844444444444445	0.8014368528872075	-0.6197303545262813	0.0	0.7853291207870147	-0.6198642919890908	0.0	0.7686309665267541	-0.7278039639514433	0.0	0.7418770754455332	-0.8379188561297327	0.0	0.7613768438270789	-0.8500056044848209	0.0	0.74709014420864	-0.8535263160849617	0.0	0.7345650269909069	-0.8518900022120997	0.0	0.8201239396950571	-0.6180338461974944	0.0	0.8710341837372813	-0.7013205490137557	0.0	0.9079894500476836	-0.7970853905128297	0.0	0.956590766569533	-0.7943886029663212	0.0	0.9496485635015967	-0.792511757916636	0.0	0.9051351119365052	-0.8164794005350691	0.0	0.8205558644399991	-0.4686443802875387	0.0	0.883262193494176	-0.41237264151476927	0.0	0.867525443484211	-0.459115033349272	0.0	0.7945994464819395	-0.4698803518796291	0.0	0.7826374871540835	-0.4352833642731826	0.0	0.8305266789101357	-0.379592028918159	0.0	0.8207923666839254	-0.47964115905117005	0.0	0.8010936368215786	-0.43818656839922554	0.0	0.8362660430677668	-0.38985020296875034	0.0
